<svg viewBox="0 0 640 400" data-background-color="#389b9f" preserveAspectRatio="xMidYMid meet" height="400" width="640" xmlns="http://www.w3.org/2000/svg" xmlns:xlink="http://www.w3.org/1999/xlink"><rect width="640" height="400" x="0" y="0" opacity="1" fill="#389b9f" data-fill-palette-color="background" id="background"></rect><g id="tight-bounds" transform="matrix(1,0,0,1,141.93974,160.40547175062972)"><svg viewBox="0 0 356.12052 79.18905649874054" height="79.18905649874054" width="356.12052"><g><svg viewBox="0 0 356.12052 79.18905649874054" height="79.18905649874054" width="356.12052"><g><svg viewBox="0 0 356.12052 79.18905649874054" height="79.18905649874054" width="356.12052"><g><path d="M0 79.189v-79.189h356.121v79.189z" fill="#82462a" stroke="transparent" stroke-width="0" rx="0%" data-fill-palette-color="tertiary"></path><path d="M3.283 75.906v-72.623h349.554v72.623z" fill="#389b9f" stroke="transparent" stroke-width="0" rx="0%" data-fill-palette-color="quaternary"></path><path d="M9.85 69.339v-59.489h336.421v59.489z" fill="#82462a" stroke="transparent" stroke-width="0" data-fill-palette-color="tertiary"></path></g><g transform="matrix(1,0,0,1,19.69974,19.69974)"><svg viewBox="0 0 316.72104 39.78957649874055" height="39.78957649874055" width="316.72104"><g><svg viewBox="0 0 316.72104 39.78957649874055" height="39.78957649874055" width="316.72104"><g transform="matrix(1,0,0,1,0,0)"><svg width="316.72104" viewBox="1.7599999904632568 -38.400001525878906 310.1300048828125 38.96000289916992" height="39.78957649874055" data-palette-color="#389b9f"><path d="M20.24-14.48L19.51-17.07 10.06-17.07 10.06-2.64 15.6-2.08 15.6 0 1.76 0 1.76-2.08 5.47-2.64 5.47-34.18 1.76-34.74 1.76-36.82 26.61-36.82 27.17-29.57 25.02-29.57 23.71-33.86 10.06-33.86 10.06-20.02 19.51-20.02 20.24-22.61 21.75-22.61 21.75-14.48 20.24-14.48ZM35.92-4.74Q33.54-7.2 32.31-10.56 31.08-13.92 31.08-17.35 31.08-20.78 31.76-23.41 32.44-26.05 33.65-28.22 34.86-30.4 36.56-32.1 38.25-33.81 40.28-34.99L40.28-34.99Q44.41-37.38 49.12-37.38 53.83-37.38 57.3-36 60.76-34.62 63.13-32.2L63.13-32.2Q67.94-27.29 67.94-19.31L67.94-19.31Q67.94-10.42 62.55-4.81L62.55-4.81Q60.06-2.22 56.75-0.83 53.44 0.56 49.35 0.56 45.26 0.56 41.78-0.85 38.3-2.27 35.92-4.74ZM39.5-29.93Q37.72-27.86 36.75-25.1 35.79-22.34 35.79-19.7 35.79-17.07 36.18-14.97 36.57-12.87 37.34-11 38.11-9.13 39.27-7.54 40.43-5.96 41.97-4.81L41.97-4.81Q45.24-2.37 49.68-2.37L49.68-2.37Q55.76-2.37 59.57-6.49L59.57-6.49Q63.3-10.55 63.3-17.07L63.3-17.07Q63.3-24.24 60.06-29L60.06-29Q56.35-34.45 49.22-34.45L49.22-34.45Q43.33-34.45 39.5-29.93L39.5-29.93ZM77.69-4.74Q75.31-7.2 74.08-10.56 72.85-13.92 72.85-17.35 72.85-20.78 73.53-23.41 74.21-26.05 75.42-28.22 76.63-30.4 78.33-32.1 80.02-33.81 82.05-34.99L82.05-34.99Q86.18-37.38 90.89-37.38 95.6-37.38 99.07-36 102.53-34.62 104.9-32.2L104.9-32.2Q109.71-27.29 109.71-19.31L109.71-19.31Q109.71-10.42 104.32-4.81L104.32-4.81Q101.83-2.22 98.52-0.83 95.21 0.56 91.12 0.56 87.03 0.56 83.55-0.85 80.07-2.27 77.69-4.74ZM81.27-29.93Q79.49-27.86 78.52-25.1 77.56-22.34 77.56-19.7 77.56-17.07 77.95-14.97 78.34-12.87 79.11-11 79.88-9.13 81.04-7.54 82.2-5.96 83.74-4.81L83.74-4.81Q87.01-2.37 91.45-2.37L91.45-2.37Q97.53-2.37 101.34-6.49L101.34-6.49Q105.07-10.55 105.07-17.07L105.07-17.07Q105.07-24.24 101.83-29L101.83-29Q98.12-34.45 90.99-34.45L90.99-34.45Q85.1-34.45 81.27-29.93L81.27-29.93ZM119.72-2.64L119.72-34.18 115.93-34.74 115.93-36.82 131.61-36.82Q141.3-36.82 146.7-32.08L146.7-32.08Q151.97-27.42 151.97-19.31L151.97-19.31Q151.97-13.48 149.26-8.89L149.26-8.89Q146.77-4.66 142.35-2.29L142.35-2.29Q138.05 0 133.1 0L133.1 0 115.93 0 115.93-2.08 119.72-2.64ZM131.49-33.86L124.24-33.86 124.24-2.93 133.05-2.93Q139.18-2.93 143.21-6.79L143.21-6.79Q147.36-10.82 147.36-17.31L147.36-17.31Q147.36-29.74 138.66-32.81L138.66-32.81Q135.66-33.86 131.49-33.86L131.49-33.86ZM156.78-34.74L156.78-36.82 168.74-36.82 168.74-34.74 165.05-34.18 165.05-2.64 168.74-2.08 168.74 0 156.78 0 156.78-2.08 160.54-2.64 160.54-34.18 156.78-34.74ZM191.1-15.09L190.37-17.65 181.38-17.65 181.38-2.93 194.98-2.93 196.74-7.25 198.6-7.25 197.79 0 173.08 0 173.08-2.08 176.79-2.64 176.79-34.18 173.08-34.74 173.08-36.82 196.72-36.82 197.28-29.57 195.13-29.57 193.81-33.86 181.38-33.86 181.38-20.58 190.37-20.58 191.1-23.17 192.83-23.17 192.83-15.09 191.1-15.09ZM242.85 0L242.85-2.08 246.22-2.64 242.37-12.13 227.72-12.13 223.88-2.64 227.33-2.08 227.33 0 216.85 0 216.85-2.08 220.71-2.64 233.53-34.33 232.5-36.74 236.46-38.4 251.06-2.64 254.99-2.08 254.99 0 242.85 0ZM235.07-30.76L228.86-15.09 241.29-15.09 235.07-30.76ZM269.41 0L256.3 0 256.3-2.08 260.01-2.64 260.01-34.18 256.3-34.74 256.3-36.82 268.34-36.82Q278.74-36.82 281.62-31.2L281.62-31.2Q282.69-29.13 282.69-26.21 282.69-23.29 281.73-21.04 280.77-18.8 278.86-17.24L278.86-17.24Q274.93-13.96 267.53-13.96L267.53-13.96 264.6-13.96 264.6-2.64 269.41-2.08 269.41 0ZM267.75-33.86L264.6-33.86 264.6-16.55 268.22-16.55Q273.08-16.55 275.64-19.14L275.64-19.14Q277.91-21.48 277.91-25.46L277.91-25.46Q277.91-29.57 275.74-31.59L275.74-31.59Q273.32-33.86 267.75-33.86L267.75-33.86ZM298.61 0L285.5 0 285.5-2.08 289.21-2.64 289.21-34.18 285.5-34.74 285.5-36.82 297.54-36.82Q307.94-36.82 310.82-31.2L310.82-31.2Q311.89-29.13 311.89-26.21 311.89-23.29 310.93-21.04 309.96-18.8 308.06-17.24L308.06-17.24Q304.13-13.96 296.73-13.96L296.73-13.96 293.8-13.96 293.8-2.64 298.61-2.08 298.61 0ZM296.95-33.86L293.8-33.86 293.8-16.55 297.41-16.55Q302.27-16.55 304.84-19.14L304.84-19.14Q307.11-21.48 307.11-25.46L307.11-25.46Q307.11-29.57 304.93-31.59L304.93-31.59Q302.52-33.86 296.95-33.86L296.95-33.86Z" opacity="1" transform="matrix(1,0,0,1,0,0)" fill="#389b9f" class="undefined-text-0" data-fill-palette-color="quaternary" id="text-0"></path></svg></g></svg></g></svg></g></svg></g><g></g></svg></g></svg><rect width="356.12052" height="79.18905649874054" fill="none" stroke="none" visibility="hidden"></rect></g><defs></defs></svg>